<?xml version="1.0" encoding="utf-8"?>
<!-- Generator: Adobe Illustrator 24.0.2, SVG Export Plug-In . SVG Version: 6.00 Build 0)  -->
<svg version="1.1" id="Capa_1" xmlns="http://www.w3.org/2000/svg" xmlns:xlink="http://www.w3.org/1999/xlink" x="0px" y="0px"
	 viewBox="0 0 1200 1200" enable-background="new 0 0 1200 1200" xml:space="preserve">
<g>
	<path fill="#98EAE8" d="M353.938,196.571h390.595V481.3H353.938V196.571z"/>
	<path fill="#FEE5A0" d="M1052.356,1037.547h-39.499v-10.725h20.525c7.023,0,13.475,2.967,16.877,7.758L1052.356,1037.547z
		 M954.004,1034.58l-2.096,2.967h47.338v-10.535c0-0.054,0.027-0.136,0.027-0.191h-28.392
		C963.858,1026.822,957.38,1029.789,954.004,1034.58z M942.462,1050.913l-17.231,24.309h153.775l-17.123-24.227
		c-0.49,0.109-0.98,0.163-1.497,0.163H944.231C943.605,1051.158,943.034,1051.049,942.462,1050.913z M714.454,1070.104H119.442
		l60.949-120.238c2.804-5.608,7.84-9.092,13.121-9.092l443.985-0.735c5.254,0,10.29,3.484,13.148,9.228L714.454,1070.104z
		 M645.611,999.125H588.95c-1.113,0-1.893,1.098-1.526,2.149l7.914,22.667c0.227,0.649,0.839,1.084,1.526,1.084h59.497
		c1.187,0,1.969-1.237,1.461-2.309l-10.749-22.667C646.804,999.484,646.235,999.125,645.611,999.125z M631.336,970.167h-53.675
		c-1.112,0-1.891,1.096-1.528,2.146l6.778,19.558c0.226,0.651,0.839,1.087,1.528,1.087h56.148c1.186,0,1.969-1.235,1.461-2.308
		l-9.251-19.558C632.53,970.527,631.961,970.167,631.336,970.167z M540.302,1001.135l5.698,22.667
		c0.181,0.719,0.827,1.223,1.568,1.223h37.4c1.103,0,1.882-1.08,1.534-2.126l-7.532-22.667c-0.22-0.661-0.838-1.107-1.534-1.107
		H541.87C540.818,999.125,540.046,1000.115,540.302,1001.135z M570.013,992.958c1.097,0,1.875-1.07,1.538-2.114l-6.321-19.558
		c-0.216-0.667-0.837-1.119-1.538-1.119h-28.71c-1.053,0-1.825,0.991-1.567,2.012l4.933,19.558c0.181,0.718,0.827,1.221,1.567,1.221
		H570.013z M590.711,946.075l6.8,16.914c0.246,0.612,0.84,1.013,1.5,1.013h27.879c1.186,0,1.969-1.235,1.461-2.308l-8.001-16.914
		c-0.267-0.565-0.836-0.925-1.461-0.925h-26.678C591.066,943.855,590.284,945.013,590.711,946.075z M549.139,945.943l5.153,16.914
		c0.207,0.68,0.835,1.145,1.547,1.145h27.993c1.129,0,1.91-1.128,1.513-2.185l-6.353-16.914c-0.237-0.631-0.84-1.048-1.513-1.048
		h-26.792C549.6,943.855,548.823,944.904,549.139,945.943z M507.59,945.8l3.505,16.914c0.156,0.75,0.817,1.288,1.583,1.288h28.08
		c1.069,0,1.844-1.02,1.557-2.05l-4.705-16.914c-0.194-0.699-0.831-1.183-1.557-1.183h-26.88
		C508.149,943.855,507.382,944.797,507.59,945.8z M492.133,1000.983l3.431,22.667c0.12,0.79,0.799,1.375,1.598,1.375h32.449
		c1.034,0,1.802-0.958,1.578-1.967l-5.039-22.667c-0.164-0.74-0.82-1.266-1.578-1.266h-30.84
		C492.742,999.125,491.985,1000.005,492.133,1000.983z M493.978,991.594c0.124,0.786,0.801,1.364,1.597,1.364h30.169
		c1.038,0,1.808-0.965,1.575-1.978l-4.483-19.558c-0.168-0.735-0.822-1.255-1.576-1.255H492.48c-0.994,0-1.752,0.888-1.597,1.869
		L493.978,991.594z M466.069,945.648l1.857,16.914c0.09,0.82,0.783,1.44,1.607,1.44h28.14c1.008,0,1.77-0.912,1.591-1.904
		l-3.057-16.914c-0.139-0.769-0.809-1.329-1.591-1.329h-26.94C466.713,943.855,465.964,944.691,466.069,945.648z M445.293,1001.739
		l1.129,20.939c0.071,1.316,1.159,2.347,2.477,2.347h30.693c1.492,0,2.646-1.308,2.462-2.788l-2.615-20.939
		c-0.155-1.241-1.21-2.173-2.461-2.173h-29.208C446.347,999.125,445.216,1000.318,445.293,1001.739z M447.953,990.628
		c0.08,1.309,1.165,2.33,2.476,2.33h28.415c1.499,0,2.655-1.319,2.46-2.805l-2.351-17.83c-0.162-1.234-1.214-2.156-2.459-2.156
		h-27.15c-1.429,0-2.563,1.205-2.476,2.631L447.953,990.628z M424.587,946.367l0.188,15.185c0.017,1.358,1.122,2.45,2.48,2.45
		h26.378c1.451,0,2.593-1.24,2.472-2.687l-1.266-15.186c-0.107-1.285-1.182-2.274-2.472-2.274h-25.301
		C425.685,943.855,424.57,944.985,424.587,946.367z M435.486,990.392l-0.613-17.83c-0.046-1.336-1.142-2.395-2.479-2.395H405.22
		c-1.335,0-2.43,1.056-2.479,2.39l-0.652,17.83c-0.052,1.404,1.073,2.571,2.479,2.571h28.438
		C434.41,992.958,435.534,991.795,435.486,990.392z M432.534,1001.537c-0.037-1.343-1.136-2.412-2.48-2.412h-29.228
		c-1.328,0-2.42,1.046-2.478,2.373l-0.91,20.939c-0.061,1.411,1.066,2.588,2.478,2.588h30.713c1.397,0,2.518-1.153,2.48-2.549
		L432.534,1001.537z M381.756,961.311c-0.123,1.448,1.019,2.691,2.472,2.691h26.378c1.356,0,2.461-1.089,2.48-2.446l0.213-15.186
		c0.02-1.383-1.097-2.515-2.48-2.515h-25.3c-1.288,0-2.362,0.986-2.472,2.27L381.756,961.311z M387.146,992.958
		c1.309,0,2.393-1.018,2.476-2.325l1.124-17.83c0.09-1.428-1.044-2.636-2.476-2.636H361.12c-1.242,0-2.294,0.919-2.459,2.151
		l-2.389,17.83c-0.199,1.488,0.958,2.81,2.458,2.81H387.146z M383.108,999.125h-29.201c-1.236,0-2.284,0.91-2.456,2.134
		l-2.95,20.939c-0.21,1.493,0.948,2.827,2.456,2.827h30.686c1.303,0,2.384-1.008,2.474-2.307l1.465-20.939
		C385.682,1000.344,384.546,999.125,383.108,999.125z M338.783,961.076c-0.278,1.523,0.892,2.926,2.44,2.926h26.33
		c1.264,0,2.325-0.95,2.466-2.206l1.693-15.185c0.164-1.47-0.987-2.755-2.465-2.755h-25.253c-1.198,0-2.225,0.856-2.44,2.035
		L338.783,961.076z M296.121,992.958c0.68,0,1.274-0.46,1.444-1.119l5.107-19.809c0.244-0.944-0.469-1.863-1.443-1.863h-28.958
		c-0.644,0-1.216,0.413-1.417,1.025l-6.513,19.809c-0.317,0.964,0.401,1.957,1.416,1.957H296.121z M286.266,999.125h-30.999
		c-0.636,0-1.203,0.404-1.41,1.006l-7.893,22.918c-0.334,0.968,0.385,1.977,1.41,1.977H280c0.672,0,1.261-0.45,1.438-1.098
		l6.266-22.918C287.964,1000.06,287.25,999.125,286.266,999.125z M300.767,1025.025h32.704c0.728,0,1.35-0.526,1.471-1.245
		l3.835-22.918c0.152-0.909-0.549-1.737-1.471-1.737h-31.077c-0.691,0-1.291,0.474-1.451,1.145l-5.462,22.918
		C299.093,1024.125,299.804,1025.025,300.767,1025.025z M342.104,992.958c0.732,0,1.356-0.532,1.472-1.255l3.178-19.809
		c0.145-0.906-0.555-1.727-1.472-1.727h-29.026c-0.694,0-1.296,0.479-1.452,1.155l-4.584,19.809
		c-0.216,0.935,0.493,1.827,1.453,1.827H342.104z M296.936,964.002h28.346c0.706,0,1.315-0.495,1.459-1.186l3.585-17.164
		c0.193-0.926-0.513-1.796-1.459-1.796h-27.129c-0.669,0-1.255,0.445-1.436,1.089l-4.804,17.164
		C295.234,963.06,295.949,964.002,296.936,964.002z M254.098,964.002h27.887c0.731,0,1.377-0.477,1.591-1.177l5.152-16.818
		c0.328-1.07-0.473-2.152-1.591-2.152h-26.693c-0.693,0-1.313,0.429-1.557,1.077l-6.345,16.818
		C252.131,962.839,252.935,964.002,254.098,964.002z M211.281,964.002h27.433c0.739,0,1.404-0.449,1.681-1.134l6.67-16.52
		c0.481-1.192-0.396-2.492-1.681-2.492h-26.261c-0.7,0-1.338,0.403-1.638,1.036l-7.842,16.52
		C209.072,962.614,209.949,964.002,211.281,964.002z M197.836,992.958h49.918c0.845,0,1.599-0.53,1.885-1.325l6.754-18.785
		c0.469-1.305-0.498-2.681-1.885-2.681h-47.755c-0.773,0-1.478,0.445-1.809,1.144l-8.917,18.785
		C195.396,991.425,196.365,992.958,197.836,992.958z M182.023,1025.025h46.612c0.679,0,1.287-0.421,1.525-1.057l8.493-22.642
		c0.399-1.065-0.388-2.201-1.525-2.201h-44.357c-0.629,0-1.202,0.362-1.471,0.93l-10.748,22.642
		C180.038,1023.778,180.827,1025.025,182.023,1025.025z M208.871,1033.661h-32.269c-0.766,0-1.465,0.441-1.793,1.134l-12.3,25.912
		c-0.625,1.317,0.335,2.837,1.794,2.837h34.107c0.809,0,1.538-0.491,1.841-1.242l10.461-25.912
		C211.239,1035.085,210.278,1033.661,208.871,1033.661z M259.193,1033.661h-32.409c-0.826,0-1.566,0.512-1.858,1.285l-9.776,25.912
		c-0.49,1.299,0.47,2.686,1.858,2.686h34.248c0.873,0,1.643-0.57,1.899-1.404l7.937-25.912
		C261.483,1034.952,260.528,1033.661,259.193,1033.661z M311.567,1035.457c0.193-0.926-0.513-1.796-1.459-1.796h-33.501
		c-0.669,0-1.256,0.445-1.436,1.089l-7.528,26.9c-0.267,0.951,0.449,1.893,1.436,1.893h35.41c0.706,0,1.315-0.495,1.459-1.186
		L311.567,1035.457z M508.46,1060.66l-4.108-24.922c-0.198-1.198-1.233-2.077-2.448-2.077H327.609c-1.198,0-2.225,0.856-2.44,2.035
		l-4.546,24.921c-0.278,1.523,0.892,2.926,2.44,2.926h182.949C507.543,1063.544,508.708,1062.17,508.46,1060.66z M570.007,1061.494
		l-7.414-26.65c-0.195-0.699-0.831-1.183-1.557-1.183h-33.253c-1.025,0-1.791,0.941-1.583,1.944l5.523,26.649
		c0.156,0.75,0.816,1.289,1.583,1.289h35.144C569.519,1063.544,570.294,1062.524,570.007,1061.494z M622.732,1061.359l-10.01-26.649
		c-0.237-0.63-0.84-1.048-1.513-1.048h-33.164c-1.086,0-1.863,1.049-1.547,2.088l8.119,26.65c0.207,0.68,0.835,1.146,1.547,1.146
		h35.056C622.348,1063.544,623.13,1062.416,622.732,1061.359z M675.437,1061.236l-12.606-26.649
		c-0.267-0.565-0.836-0.925-1.461-0.925h-33.051c-1.145,0-1.927,1.157-1.5,2.219l10.715,26.65c0.247,0.612,0.84,1.014,1.5,1.014
		h34.942C675.162,1063.544,675.944,1062.308,675.437,1061.236z M275.423,927.027l362.048-0.599c4.464,0,8.738,1.198,12.631,3.321
		h201.386V903.1c-0.435-0.817-0.735-1.715-0.816-2.668c-0.136-1.198,0.109-2.341,0.545-3.348c-0.272-0.653-0.49-1.334-0.572-2.042
		c-0.136-1.443,0.19-2.831,0.844-4.002v-21.124H275.668L275.423,927.027z M924.387,798.16l-730.411,6.424l-2.232-1.497
		c-1.062-0.708-2.26-1.062-3.457-1.116c-1.143-1.443-1.688-3.185-1.525-5.063l70.967-726.982c0.354-3.593,3.348-6.315,6.969-6.315
		h571.464c3.512,0,6.506,2.641,6.941,6.152l88.198,720.557c0.245,1.987-0.354,3.947-1.688,5.444
		C928.28,797.289,926.428,798.133,924.387,798.16z M307.463,512.959c0,0.272,0.054,0.517,0.081,0.789c0,0.082,0,0.191,0.027,0.272
		c0.055,0.327,0.136,0.653,0.245,0.98c0.027,0.082,0.027,0.191,0.082,0.272c0.136,0.408,0.299,0.79,0.517,1.17
		c0.027,0,0.027,0,0.027,0c0.218,0.408,0.49,0.79,0.79,1.116c0.327,0.354,0.681,0.653,1.062,0.925
		c0.109,0.082,0.245,0.136,0.354,0.218c0.191,0.109,0.354,0.245,0.544,0.327c0.082,0.027,0.136,0.055,0.191,0.082
		c0.163,0.082,0.299,0.136,0.463,0.191c0.136,0.054,0.245,0.109,0.381,0.163c0.163,0.054,0.299,0.082,0.435,0.109
		c0.163,0.027,0.299,0.054,0.463,0.082c0.245,0.054,0.517,0.082,0.762,0.082c0.136,0.027,0.272,0.055,0.409,0.055
		c0.027,0,0.081-0.027,0.109-0.027h469.628c0.054,0,0.109,0.027,0.136,0.027c0.109,0,0.218-0.027,0.327-0.055
		c0.299,0,0.599-0.027,0.898-0.082c0.19-0.027,0.354-0.082,0.517-0.109c0.081-0.027,0.19-0.054,0.272-0.082
		c0.218-0.082,0.436-0.136,0.626-0.245c0.027,0,0.027,0,0.055,0c0.136-0.055,0.273-0.136,0.409-0.191
		c0.054-0.027,0.136-0.054,0.19-0.109c0.164-0.109,0.354-0.218,0.517-0.327c0.082-0.027,0.163-0.109,0.245-0.163
		c0.082-0.055,0.164-0.109,0.245-0.191c0.027,0,0.027,0,0.027-0.027c0.163-0.136,0.326-0.272,0.49-0.435
		c0.191-0.191,0.354-0.381,0.517-0.572c0.027-0.027,0.055-0.055,0.082-0.109c0.3-0.381,0.545-0.817,0.762-1.28
		c0.082-0.163,0.136-0.327,0.191-0.49c0.136-0.408,0.245-0.817,0.326-1.252c0-0.027,0.027-0.082,0.027-0.136
		c0.027-0.027,0-0.082,0.027-0.136c0.027-0.191,0.027-0.381,0.055-0.572V166.155c0,0,0-0.027,0-0.054s0-0.027,0-0.055
		c0-0.163-0.027-0.299-0.027-0.435c-0.027-0.136-0.027-0.3-0.055-0.463c0-0.054-0.027-0.136-0.027-0.191
		c-0.054-0.19-0.081-0.354-0.136-0.544c-0.027-0.082-0.027-0.163-0.054-0.272c-0.055-0.191-0.136-0.354-0.191-0.544
		c0-0.027-0.027-0.054-0.055-0.082c-0.191-0.463-0.435-0.926-0.735-1.334c-0.027-0.055-0.082-0.109-0.136-0.163l-0.408-0.49
		c-0.027-0.054-0.109-0.082-0.136-0.136c-0.136-0.136-0.272-0.272-0.408-0.381c-0.027-0.027-0.027-0.027-0.055-0.054
		c-0.027-0.027-0.082-0.055-0.136-0.082c-0.272-0.245-0.572-0.435-0.871-0.626c-0.055-0.027-0.109-0.055-0.163-0.109
		c-0.19-0.082-0.381-0.163-0.572-0.245c-0.217-0.082-0.408-0.163-0.626-0.218c-0.163-0.054-0.299-0.082-0.463-0.136
		c0,0-0.027,0-0.055,0c-0.435-0.109-0.899-0.163-1.388-0.163c-0.027,0-0.054-0.027-0.109-0.027h-469.9
		c-0.027,0-0.055,0.027-0.109,0.027c-0.463,0-0.926,0.054-1.361,0.163h-0.082c-0.191,0.055-0.381,0.109-0.599,0.163
		c-0.136,0.054-0.272,0.109-0.408,0.163c-0.027,0.027-0.055,0.027-0.082,0.027c-0.19,0.082-0.381,0.163-0.572,0.245
		c-0.055,0.054-0.109,0.082-0.163,0.136c-0.245,0.136-0.463,0.299-0.708,0.49c-0.082,0.055-0.191,0.136-0.3,0.191
		c-0.027,0.027-0.055,0.054-0.082,0.082c-0.082,0.109-0.19,0.191-0.272,0.272c-0.082,0.082-0.164,0.163-0.245,0.218
		c-0.191,0.218-0.381,0.435-0.544,0.653c-0.027,0.082-0.055,0.136-0.109,0.191c-0.245,0.381-0.463,0.789-0.626,1.198
		c0,0,0,0.027-0.027,0.027c-0.082,0.191-0.164,0.354-0.218,0.544c-0.027,0.136-0.055,0.272-0.082,0.408
		c-0.027,0.054-0.027,0.136-0.054,0.218c-0.027,0.109-0.055,0.245-0.082,0.354c-0.027,0.245-0.027,0.49-0.054,0.735v0.136
		c0,0.054-0.027,0.109-0.027,0.163V512.959z M323.006,785.693l-4.492-39.199c-0.408-3.457-3.321-6.043-6.751-6.043h-0.136
		l-63.1,1.279c-3.348,0.055-6.152,2.559-6.615,5.88l-5.308,38.927c-0.272,1.96,0.326,3.947,1.66,5.417
		c1.28,1.47,3.131,2.287,5.091,2.287h0.082l72.9-0.953c1.933-0.027,3.756-0.871,5.008-2.314
		C322.625,789.531,323.224,787.598,323.006,785.693z M868.473,683.012c0-3.784-3.048-6.805-6.805-6.805h-97.725
		c-3.757,0-6.805,3.022-6.805,6.805v21.968H574.616c-1.497,0-2.722,1.198-2.722,2.722v22.785c0,1.524,1.225,2.722,2.722,2.722
		h183.229c-0.436,0.926-0.708,1.933-0.708,2.994v21.723c0,3.757,3.049,6.805,6.805,6.805h97.725c3.757,0,6.805-3.049,6.805-6.805
		V683.012z"/>
	<path fill="#D2ACFE" d="M749.433,494.911c2.532,1.715,8.221,6.016,14.999,11.243H332.534c6.833-5.635,12.903-10.208,15.325-11.243
		H749.433z M916.193,1136.389h171.306v-47.556H916.193V1136.389z M721.531,1083.715h-609.03v48.155h609.03V1083.715z
		 M855.897,856.305l55.042-44.398l-696.956,6.125l56.975,38.274H855.897z M770.748,704.871c0,0.027-0.027,0.055-0.027,0.109h67.782
		c1.497,0,2.722,1.198,2.722,2.722v22.785c0,1.524-1.225,2.722-2.722,2.722h-68.489c0.463,0.926,0.735,1.933,0.735,2.994v14.917
		h84.115v-61.303h-84.115V704.871z M254.625,755.204l-3.457,25.343l57.465-0.789l-2.94-25.561L254.625,755.204z M758.144,484.458
		c3.185,2.205,8.874,6.424,19.218,14.509V179.439l-19.218,13.801V484.458z M749.161,182.951l13.883-9.99H335.419l13.883,9.99
		H749.161z M340.319,193.268l-19.246-13.856v318.521c9.446-8.03,15.407-12.168,19.246-14.319V193.268z"/>
	<path fill="#232338" d="M307.571,514.02c0.055,0.327,0.136,0.653,0.245,0.98c0.027,0.082,0.027,0.191,0.082,0.272
		c0.136,0.408,0.299,0.79,0.517,1.17c0.027,0,0.027,0,0.027,0c0.218,0.408,0.49,0.79,0.79,1.116
		c0.327,0.354,0.681,0.653,1.062,0.925c0.109,0.082,0.245,0.136,0.354,0.218c0.191,0.109,0.354,0.245,0.544,0.327
		c0.082,0.027,0.136,0.055,0.191,0.082c0.163,0.082,0.299,0.136,0.463,0.191c0.136,0.054,0.245,0.109,0.381,0.163
		c0.163,0.054,0.299,0.082,0.435,0.109c0.163,0.027,0.299,0.054,0.463,0.082c0.245,0.054,0.517,0.082,0.762,0.082
		c0.136,0.027,0.272,0.055,0.409,0.055c0.027,0,0.081-0.027,0.109-0.027h469.628c0.054,0,0.109,0.027,0.136,0.027
		c0.109,0,0.218-0.027,0.327-0.055c0.299,0,0.599-0.027,0.898-0.082c0.19-0.027,0.354-0.082,0.517-0.109
		c0.081-0.027,0.19-0.054,0.272-0.082c0.218-0.082,0.436-0.136,0.626-0.245c0.027,0,0.027,0,0.055,0
		c0.136-0.055,0.273-0.136,0.409-0.191c0.054-0.027,0.136-0.054,0.19-0.109c0.164-0.109,0.354-0.218,0.517-0.327
		c0.082-0.027,0.163-0.109,0.245-0.163c0.082-0.055,0.164-0.109,0.245-0.191c0.027,0,0.027,0,0.027-0.027
		c0.163-0.136,0.326-0.272,0.49-0.435c0.191-0.191,0.354-0.381,0.517-0.572c0.027-0.027,0.055-0.055,0.082-0.109
		c0.3-0.381,0.545-0.817,0.762-1.28c0.082-0.163,0.136-0.327,0.191-0.49c0.136-0.408,0.245-0.817,0.326-1.252
		c0-0.027,0.027-0.082,0.027-0.136c0.027-0.027,0-0.082,0.027-0.136c0.027-0.191,0.027-0.381,0.055-0.572V166.155
		c0,0,0-0.027,0-0.054s0-0.027,0-0.055c0-0.163-0.027-0.299-0.027-0.435c-0.027-0.136-0.027-0.3-0.055-0.463
		c0-0.054-0.027-0.136-0.027-0.191c-0.054-0.19-0.081-0.354-0.136-0.544c-0.027-0.082-0.027-0.163-0.054-0.272
		c-0.055-0.191-0.136-0.354-0.191-0.544c0-0.027-0.027-0.054-0.055-0.082c-0.191-0.463-0.435-0.926-0.735-1.334
		c-0.027-0.055-0.082-0.109-0.136-0.163l-0.408-0.49c-0.027-0.054-0.109-0.082-0.136-0.136c-0.136-0.136-0.272-0.272-0.408-0.381
		c-0.027-0.027-0.027-0.027-0.055-0.054c-0.027-0.027-0.082-0.055-0.136-0.082c-0.272-0.245-0.572-0.435-0.871-0.626
		c-0.055-0.027-0.109-0.055-0.163-0.109c-0.19-0.082-0.381-0.163-0.572-0.245c-0.217-0.082-0.408-0.163-0.626-0.218
		c-0.163-0.054-0.299-0.082-0.463-0.136c0,0-0.027,0-0.055,0c-0.435-0.109-0.899-0.163-1.388-0.163
		c-0.027,0-0.054-0.027-0.109-0.027h-469.9c-0.027,0-0.055,0.027-0.109,0.027c-0.463,0-0.926,0.054-1.361,0.163h-0.082
		c-0.191,0.055-0.381,0.109-0.599,0.163c-0.136,0.054-0.272,0.109-0.408,0.163c-0.027,0.027-0.055,0.027-0.082,0.027
		c-0.19,0.082-0.381,0.163-0.572,0.245c-0.055,0.054-0.109,0.082-0.163,0.136c-0.245,0.136-0.463,0.299-0.708,0.49
		c-0.082,0.055-0.191,0.136-0.3,0.191c-0.027,0.027-0.055,0.054-0.082,0.082c-0.082,0.109-0.19,0.191-0.272,0.272
		c-0.082,0.082-0.164,0.163-0.245,0.218c-0.191,0.218-0.381,0.435-0.544,0.653c-0.027,0.082-0.055,0.136-0.109,0.191
		c-0.245,0.381-0.463,0.789-0.626,1.198c0,0,0,0.027-0.027,0.027c-0.082,0.191-0.164,0.354-0.218,0.544
		c-0.027,0.136-0.055,0.272-0.082,0.408c-0.027,0.054-0.027,0.136-0.054,0.218c-0.027,0.109-0.055,0.245-0.082,0.354
		c-0.027,0.245-0.027,0.49-0.054,0.735v0.136c0,0.054-0.027,0.109-0.027,0.163v346.804c0,0.272,0.054,0.517,0.081,0.789
		C307.544,513.83,307.544,513.939,307.571,514.02z M332.534,506.153c6.833-5.635,12.903-10.208,15.325-11.243h401.574
		c2.532,1.715,8.221,6.016,14.999,11.243H332.534z M353.93,481.3V196.561h390.604v0.009V481.3H353.938H353.93z M777.363,498.967
		c-10.344-8.085-16.033-12.304-19.218-14.509V193.24l19.218-13.801V498.967z M763.044,172.96l-13.883,9.99H349.302l-13.883-9.99
		H763.044z M321.073,179.412l19.246,13.856v290.346c-3.838,2.151-9.8,6.288-19.246,14.319V179.412z M861.668,676.207h-97.725
		c-3.757,0-6.805,3.022-6.805,6.805v21.968H574.616c-1.497,0-2.722,1.198-2.722,2.722v22.785c0,1.524,1.225,2.722,2.722,2.722
		h183.229c-0.436,0.926-0.708,1.933-0.708,2.994v21.723c0,3.757,3.049,6.805,6.805,6.805h97.725c3.757,0,6.805-3.049,6.805-6.805
		v-74.914C868.473,679.229,865.425,676.207,861.668,676.207z M854.862,751.121h-84.115v-14.917c0-1.062-0.272-2.069-0.735-2.994
		h68.489c1.497,0,2.722-1.198,2.722-2.722v-22.785c0-1.524-1.225-2.722-2.722-2.722h-67.782c0-0.054,0.027-0.082,0.027-0.109
		v-15.054h84.115V751.121z M318.514,746.493c-0.408-3.457-3.321-6.043-6.751-6.043h-0.136l-63.1,1.279
		c-3.348,0.055-6.152,2.559-6.615,5.88l-5.308,38.927c-0.272,1.96,0.326,3.947,1.66,5.417c1.28,1.47,3.131,2.287,5.091,2.287h0.082
		l72.9-0.953c1.933-0.027,3.756-0.871,5.008-2.314c1.28-1.443,1.878-3.375,1.661-5.281L318.514,746.493z M251.168,780.548
		l3.457-25.343l51.068-1.007l2.94,25.561L251.168,780.548z M110.214,1145.481h613.603c6.261,0,11.324-5.09,11.324-11.324v-52.756
		c0-3.321-1.47-6.261-3.756-8.33L662.923,943.36h195.37c3.757,0,6.805-3.049,6.805-6.805v-30.597
		c44.589-3.484,76.765,1.661,93.234,14.972c16.687,13.475,15.707,31.005,14.564,51.313c-0.762,13.693-1.552,27.739,3.375,40.969
		h-5.39c-11.379,0-22.104,5.172-27.984,13.502l-36.341,51.367c-0.354,0.49-0.599,1.034-0.816,1.579
		c-1.933,2.232-3.158,5.118-3.158,8.303v49.271c0,7.05,5.717,12.767,12.74,12.767h173.021c7.051,0,12.767-5.717,12.767-12.767
		v-49.271c0-2.695-0.844-5.172-2.286-7.241c-0.164-0.926-0.544-1.824-1.116-2.641l-36.341-51.367
		c-5.907-8.33-16.605-13.502-27.984-13.502h-35.279c-3.131-2.885-4.438-7.84-4.219-15.761c0.136-5.417,0.572-10.997,0.98-16.415
		c0.871-11.215,1.769-22.839,0.354-34.544c-2.559-21.26-13.447-38.873-29.808-48.291c-12.985-7.486-28.692-9.745-42.33-10.97
		c-19.246-1.715-38.709-1.851-57.982-0.381v-20.471l69.579-56.131c0.844-0.708,1.443-1.552,1.878-2.477
		c1.198-0.871,2.314-1.878,3.294-3.022c3.866-4.41,5.662-10.263,4.954-16.088L856.605,68.102C855.353,57.785,846.56,50,836.162,50
		H264.697c-10.644,0-19.464,8.003-20.498,18.592l-70.994,726.982c-0.572,5.826,1.361,11.624,5.308,15.925
		c2.831,3.076,6.479,5.172,10.453,6.125l73.09,49.108l-0.245,60.323l-68.327,0.109c-10.453,0-20.117,6.37-25.235,16.578
		l-65.55,129.276c-2.314,2.069-3.811,5.036-3.811,8.384v52.756C98.89,1140.391,103.953,1145.481,110.214,1145.481z
		 M1087.499,1136.389H916.193v-47.556h171.306V1136.389z M1060.386,1051.158c0.517,0,1.008-0.055,1.497-0.163l17.123,24.227H925.231
		l17.231-24.309c0.572,0.136,1.143,0.245,1.769,0.245H1060.386z M1012.857,1026.822h20.525c7.023,0,13.475,2.967,16.877,7.758
		l2.096,2.967h-39.499V1026.822z M999.274,1026.822c0,0.054-0.027,0.136-0.027,0.191v10.535h-47.338l2.096-2.967
		c3.375-4.791,9.854-7.758,16.877-7.758H999.274z M851.487,891.04c-0.653,1.171-0.98,2.559-0.844,4.002
		c0.082,0.708,0.299,1.388,0.572,2.042c-0.436,1.007-0.681,2.151-0.545,3.348c0.081,0.953,0.381,1.851,0.816,2.668v26.65H650.101
		c-3.893-2.123-8.167-3.321-12.631-3.321l-362.048,0.599l0.245-57.111h575.819V891.04z M191.743,803.087
		c-1.062-0.708-2.26-1.062-3.457-1.116c-1.143-1.443-1.688-3.185-1.525-5.063l70.967-726.982c0.354-3.593,3.348-6.315,6.969-6.315
		h571.464c3.512,0,6.506,2.641,6.941,6.152l88.198,720.557c0.245,1.987-0.354,3.947-1.688,5.444
		c-1.334,1.524-3.185,2.368-5.227,2.396l-730.411,6.424L191.743,803.087z M213.983,818.032l696.956-6.125l-55.042,44.398H270.958
		L213.983,818.032z M180.392,949.866c2.804-5.608,7.84-9.092,13.121-9.092l443.985-0.735c5.254,0,10.29,3.484,13.148,9.228
		l63.808,120.837H119.442L180.392,949.866z M112.501,1083.715h609.03v48.155h-609.03V1083.715z M209.643,961.411l7.842-16.52
		c0.3-0.633,0.938-1.036,1.638-1.036h26.261c1.285,0,2.162,1.3,1.681,2.492l-6.67,16.52c-0.277,0.686-0.942,1.134-1.681,1.134
		h-27.433C209.949,964.002,209.072,962.614,209.643,961.411z M252.541,961.75l6.345-16.818c0.245-0.648,0.865-1.077,1.557-1.077
		h26.693c1.119,0,1.919,1.082,1.591,2.152l-5.152,16.818c-0.214,0.699-0.86,1.177-1.591,1.177h-27.887
		C252.935,964.002,252.131,962.839,252.541,961.75z M295.5,962.109l4.804-17.164c0.18-0.644,0.767-1.089,1.436-1.089h27.129
		c0.946,0,1.653,0.87,1.459,1.796l-3.585,17.164c-0.144,0.691-0.754,1.186-1.459,1.186h-28.346
		C295.949,964.002,295.234,963.06,295.5,962.109z M338.783,961.076l2.77-15.186c0.215-1.179,1.242-2.035,2.44-2.035h25.253
		c1.479,0,2.629,1.286,2.465,2.755l-1.693,15.185c-0.14,1.256-1.202,2.206-2.466,2.206h-26.33
		C339.675,964.002,338.504,962.599,338.783,961.076z M381.756,961.311l1.291-15.185c0.109-1.284,1.183-2.27,2.472-2.27h25.3
		c1.384,0,2.5,1.132,2.48,2.515l-0.213,15.186c-0.019,1.356-1.124,2.446-2.48,2.446h-26.378
		C382.775,964.002,381.633,962.759,381.756,961.311z M424.775,961.552l-0.188-15.185c-0.017-1.382,1.099-2.511,2.48-2.511h25.301
		c1.29,0,2.365,0.989,2.472,2.274l1.266,15.186c0.121,1.446-1.02,2.687-2.472,2.687h-26.378
		C425.897,964.002,424.792,962.91,424.775,961.552z M467.926,962.562l-1.857-16.914c-0.105-0.957,0.644-1.793,1.607-1.793h26.94
		c0.782,0,1.451,0.56,1.591,1.329l3.057,16.914c0.179,0.992-0.583,1.904-1.591,1.904h-28.14
		C468.708,964.002,468.016,963.381,467.926,962.562z M511.095,962.713L507.59,945.8c-0.208-1.003,0.558-1.944,1.583-1.944h26.88
		c0.726,0,1.363,0.484,1.557,1.183l4.705,16.914c0.287,1.03-0.488,2.05-1.557,2.05h-28.08
		C511.912,964.002,511.251,963.464,511.095,962.713z M549.139,945.943c-0.316-1.039,0.461-2.088,1.547-2.088h26.792
		c0.673,0,1.276,0.417,1.513,1.048l6.353,16.914c0.397,1.057-0.384,2.185-1.513,2.185h-27.993c-0.711,0-1.339-0.465-1.547-1.145
		L549.139,945.943z M590.711,946.075c-0.427-1.062,0.355-2.22,1.5-2.22h26.678c0.625,0,1.194,0.36,1.461,0.925l8.001,16.914
		c0.507,1.073-0.275,2.308-1.461,2.308h-27.879c-0.66,0-1.253-0.401-1.5-1.013L590.711,946.075z M210.712,1036.39l-10.461,25.912
		c-0.303,0.751-1.031,1.242-1.841,1.242h-34.107c-1.458,0-2.419-1.519-1.794-2.837l12.3-25.912c0.329-0.693,1.027-1.134,1.793-1.134
		h32.269C210.278,1033.661,211.239,1035.085,210.712,1036.39z M261.092,1036.228l-7.937,25.912
		c-0.256,0.834-1.026,1.404-1.899,1.404h-34.248c-1.388,0-2.347-1.388-1.858-2.686l9.776-25.912
		c0.291-0.773,1.031-1.285,1.858-1.285h32.409C260.528,1033.661,261.483,1034.952,261.092,1036.228z M311.567,1035.457l-5.619,26.9
		c-0.144,0.691-0.754,1.186-1.459,1.186h-35.41c-0.987,0-1.702-0.942-1.436-1.893l7.528-26.9c0.18-0.644,0.767-1.089,1.436-1.089
		h33.501C311.054,1033.661,311.761,1034.531,311.567,1035.457z M504.352,1035.738l4.108,24.922c0.249,1.511-0.916,2.884-2.448,2.884
		H323.063c-1.548,0-2.718-1.403-2.44-2.926l4.546-24.921c0.215-1.179,1.242-2.035,2.44-2.035h174.295
		C503.118,1033.661,504.154,1034.54,504.352,1035.738z M570.007,1061.494c0.286,1.03-0.488,2.05-1.557,2.05h-35.144
		c-0.766,0-1.427-0.538-1.583-1.289l-5.523-26.649c-0.208-1.003,0.558-1.944,1.583-1.944h33.253c0.726,0,1.363,0.484,1.557,1.183
		L570.007,1061.494z M622.732,1061.359c0.397,1.057-0.384,2.185-1.513,2.185h-35.056c-0.711,0-1.339-0.465-1.547-1.146l-8.119-26.65
		c-0.316-1.039,0.461-2.088,1.547-2.088h33.164c0.674,0,1.277,0.418,1.513,1.048L622.732,1061.359z M673.976,1063.544h-34.942
		c-0.66,0-1.253-0.401-1.5-1.014l-10.715-26.65c-0.427-1.062,0.355-2.219,1.5-2.219h33.051c0.625,0,1.194,0.36,1.461,0.925
		l12.606,26.649C675.944,1062.308,675.162,1063.544,673.976,1063.544z M196.027,990.096l8.917-18.785
		c0.332-0.699,1.036-1.144,1.809-1.144h47.755c1.387,0,2.354,1.376,1.885,2.681l-6.754,18.785c-0.286,0.795-1.04,1.325-1.885,1.325
		h-49.918C196.365,992.958,195.396,991.425,196.027,990.096z M296.121,992.958h-30.363c-1.015,0-1.734-0.992-1.416-1.957
		l6.513-19.809c0.201-0.612,0.773-1.025,1.417-1.025h28.958c0.974,0,1.687,0.92,1.443,1.863l-5.107,19.809
		C297.395,992.498,296.801,992.958,296.121,992.958z M342.104,992.958h-30.432c-0.959,0-1.669-0.893-1.453-1.827l4.584-19.809
		c0.156-0.676,0.758-1.155,1.452-1.155h29.026c0.918,0,1.618,0.821,1.472,1.727l-3.178,19.809
		C343.461,992.426,342.837,992.958,342.104,992.958z M387.146,992.958h-28.415c-1.501,0-2.658-1.322-2.458-2.81l2.389-17.83
		c0.165-1.232,1.216-2.151,2.459-2.151h27.149c1.431,0,2.566,1.208,2.476,2.636l-1.124,17.83
		C389.539,991.94,388.455,992.958,387.146,992.958z M433.007,992.958h-28.438c-1.406,0-2.53-1.167-2.479-2.571l0.652-17.83
		c0.049-1.334,1.144-2.39,2.479-2.39h27.173c1.337,0,2.433,1.059,2.479,2.395l0.613,17.83
		C435.534,991.795,434.41,992.958,433.007,992.958z M447.953,990.628l-1.085-17.83c-0.087-1.427,1.047-2.631,2.476-2.631h27.15
		c1.245,0,2.297,0.922,2.459,2.156l2.351,17.83c0.195,1.486-0.961,2.805-2.46,2.805h-28.415
		C449.118,992.958,448.033,991.937,447.953,990.628z M493.978,991.594l-3.096-19.558c-0.155-0.981,0.603-1.869,1.597-1.869h28.781
		c0.754,0,1.407,0.521,1.576,1.255l4.483,19.558c0.232,1.012-0.537,1.978-1.575,1.978h-30.169
		C494.78,992.958,494.102,992.38,493.978,991.594z M570.013,992.958h-30.098c-0.74,0-1.386-0.503-1.567-1.221l-4.933-19.558
		c-0.258-1.021,0.514-2.012,1.567-2.012h28.71c0.701,0,1.323,0.452,1.538,1.119l6.321,19.558
		C571.888,991.888,571.11,992.958,570.013,992.958z M180.551,1022.697l10.748-22.642c0.27-0.568,0.842-0.93,1.471-0.93h44.357
		c1.137,0,1.925,1.136,1.525,2.201l-8.493,22.642c-0.239,0.636-0.846,1.057-1.525,1.057h-46.612
		C180.827,1025.025,180.038,1023.778,180.551,1022.697z M286.266,999.125c0.984,0,1.697,0.936,1.438,1.884l-6.266,22.918
		c-0.177,0.648-0.766,1.098-1.438,1.098h-32.625c-1.024,0-1.743-1.009-1.41-1.977l7.893-22.918c0.207-0.602,0.773-1.006,1.41-1.006
		H286.266z M299.317,1023.188l5.462-22.918c0.16-0.671,0.76-1.145,1.451-1.145h31.077c0.922,0,1.623,0.828,1.471,1.737
		l-3.835,22.918c-0.12,0.719-0.742,1.245-1.471,1.245h-32.704C299.804,1025.025,299.093,1024.125,299.317,1023.188z
		 M383.108,999.125c1.438,0,2.575,1.219,2.474,2.654l-1.465,20.939c-0.091,1.3-1.172,2.307-2.474,2.307h-30.686
		c-1.508,0-2.667-1.334-2.456-2.827l2.95-20.939c0.173-1.224,1.22-2.134,2.456-2.134H383.108z M432.534,1001.537l0.575,20.939
		c0.039,1.396-1.083,2.549-2.48,2.549h-30.713c-1.412,0-2.539-1.177-2.478-2.588l0.91-20.939c0.058-1.327,1.15-2.373,2.478-2.373
		h29.228C431.398,999.125,432.497,1000.194,432.534,1001.537z M447.769,999.125h29.208c1.251,0,2.306,0.932,2.461,2.173
		l2.615,20.939c0.185,1.48-0.97,2.788-2.462,2.788h-30.693c-1.318,0-2.406-1.031-2.477-2.347l-1.129-20.939
		C445.216,1000.318,446.347,999.125,447.769,999.125z M495.563,1023.65l-3.431-22.667c-0.148-0.978,0.609-1.858,1.598-1.858h30.84
		c0.758,0,1.414,0.526,1.578,1.266l5.039,22.667c0.225,1.009-0.544,1.967-1.578,1.967h-32.449
		C496.362,1025.025,495.683,1024.44,495.563,1023.65z M540.302,1001.135c-0.257-1.021,0.515-2.011,1.568-2.011h35.565
		c0.696,0,1.315,0.446,1.534,1.107l7.532,22.667c0.348,1.046-0.431,2.126-1.534,2.126h-37.4c-0.741,0-1.387-0.504-1.568-1.223
		L540.302,1001.135z M588.95,999.125h56.662c0.624,0,1.193,0.36,1.46,0.924l10.749,22.667c0.508,1.072-0.274,2.309-1.461,2.309
		h-59.497c-0.688,0-1.3-0.435-1.526-1.084l-7.914-22.667C587.057,1000.223,587.837,999.125,588.95,999.125z M577.661,970.167h53.675
		c0.625,0,1.194,0.36,1.461,0.925l9.251,19.558c0.507,1.072-0.275,2.308-1.461,2.308h-56.148c-0.689,0-1.302-0.437-1.528-1.087
		l-6.778-19.558C575.77,971.263,576.55,970.167,577.661,970.167z"/>
</g>
</svg>
